<?xml version="1.0" standalone="no"?>
<!DOCTYPE svg PUBLIC "-//W3C//DTD SVG 20010904//EN"
 "http://www.w3.org/TR/2001/REC-SVG-20010904/DTD/svg10.dtd">
<svg version="1.0" xmlns="http://www.w3.org/2000/svg"
 width="512.000000pt" height="512.000000pt" viewBox="0 0 512.000000 512.000000"
 preserveAspectRatio="xMidYMid meet">
<circle r="256" cx="256" cy="256" fill="white"/>
<g transform="translate(84.000000,440.000000) scale(0.070000,-0.070000)"
fill="#000000" stroke="none">
<path d="M425 4935 c-24 -23 -25 -29 -25 -158 l0 -135 -55 -7 c-75 -9 -183
-65 -235 -121 -23 -25 -56 -75 -73 -112 l-32 -67 0 -1776 0 -1775 37 -76 c45
-91 103 -147 196 -191 l67 -32 1368 -3 1367 -2 0 80 0 80 -200 0 -200 0 0 99
0 98 58 38 c31 21 109 65 172 97 63 33 116 61 118 62 1 2 -12 35 -30 74 l-33
71 -89 -44 c-48 -25 -113 -59 -142 -76 l-54 -31 2 1668 3 1668 105 63 c383
230 886 346 1603 369 l207 7 0 -1281 0 -1282 80 0 80 0 0 1120 c0 1030 1 1120
16 1120 77 0 189 -88 212 -166 9 -31 12 -315 12 -1178 l0 -1136 80 0 80 0 -2
1168 -3 1167 -32 67 c-17 37 -50 87 -73 112 -52 56 -160 112 -235 121 l-55 7
0 135 c0 129 -1 135 -25 158 -23 24 -29 25 -167 25 -285 0 -665 -28 -893 -66
-392 -64 -749 -190 -1010 -355 l-65 -41 -66 42 c-204 128 -495 245 -774 309
-293 68 -733 111 -1128 111 -138 0 -144 -1 -167 -25z m665 -155 c555 -44 1003
-173 1337 -387 l53 -34 0 -1665 0 -1666 -32 20 c-175 107 -470 221 -733 282
-267 62 -721 109 -1057 110 l-98 0 0 1682 0 1681 203 -7 c111 -4 258 -11 327
-16z m-690 -1875 l0 -1576 25 -24 c22 -23 32 -25 120 -25 l95 0 0 -215 c0
-216 0 -216 25 -240 l24 -25 896 0 895 0 0 -80 0 -80 -1056 0 c-800 0 -1067 3
-1098 12 -55 16 -138 99 -154 154 -17 60 -17 3448 0 3508 23 77 128 161 206
165 l22 1 0 -1575z m850 -1660 c373 -43 690 -125 945 -245 l80 -38 -737 -1
-738 -1 0 157 0 156 158 -6 c86 -4 218 -14 292 -22z"/>
<path d="M880 4082 l0 -80 88 -6 c480 -35 809 -94 1061 -190 52 -20 97 -33
101 -29 9 11 61 135 58 138 -13 8 -120 48 -198 74 -265 86 -584 139 -1007 166
l-103 7 0 -80z"/>
<path d="M880 3682 l0 -80 88 -6 c480 -35 809 -94 1061 -190 52 -20 97 -33
101 -29 9 11 61 135 58 138 -13 8 -120 48 -198 74 -265 86 -584 139 -1007 166
l-103 7 0 -80z"/>
<path d="M880 3282 l0 -80 88 -6 c480 -35 809 -94 1061 -190 52 -20 97 -33
101 -29 9 11 61 135 58 138 -13 8 -120 48 -198 74 -265 86 -584 139 -1007 166
l-103 7 0 -80z"/>
<path d="M880 2882 l0 -80 88 -6 c480 -35 809 -94 1061 -190 52 -20 97 -33
101 -29 9 11 61 135 58 138 -13 8 -120 48 -198 74 -265 86 -584 139 -1007 166
l-103 7 0 -80z"/>
<path d="M880 2482 l0 -80 88 -6 c480 -35 809 -94 1061 -190 52 -20 97 -33
101 -29 9 11 61 135 58 138 -13 8 -120 48 -198 74 -265 86 -584 139 -1007 166
l-103 7 0 -80z"/>
<path d="M880 2082 l0 -80 88 -6 c480 -35 809 -94 1061 -190 52 -20 97 -33
101 -29 9 11 61 135 58 138 -13 8 -120 48 -198 74 -265 86 -584 139 -1007 166
l-103 7 0 -80z"/>
<path d="M4035 4149 c-277 -20 -567 -66 -778 -124 -102 -28 -313 -99 -325
-110 -4 -4 47 -127 57 -138 4 -4 45 7 92 24 186 69 370 114 599 148 119 17
207 26 488 47 l72 6 0 79 0 79 -42 -1 c-24 -1 -97 -6 -163 -10z"/>
<path d="M4035 3749 c-277 -20 -567 -66 -778 -124 -102 -28 -313 -99 -325
-110 -4 -4 47 -127 57 -138 4 -4 45 7 92 24 186 69 370 114 599 148 119 17
207 26 488 47 l72 6 0 79 0 79 -42 -1 c-24 -1 -97 -6 -163 -10z"/>
<path d="M4035 3349 c-277 -20 -567 -66 -778 -124 -102 -28 -313 -99 -325
-110 -4 -4 47 -127 57 -138 4 -4 45 7 92 24 186 69 370 114 599 148 119 17
207 26 488 47 l72 6 0 79 0 79 -42 -1 c-24 -1 -97 -6 -163 -10z"/>
<path d="M4035 2949 c-277 -20 -567 -66 -778 -124 -102 -28 -313 -99 -325
-110 -4 -4 47 -127 57 -138 4 -4 45 7 92 24 186 69 370 114 599 148 119 17
207 26 488 47 l72 6 0 79 0 79 -42 -1 c-24 -1 -97 -6 -163 -10z"/>
<path d="M4035 2549 c-277 -20 -567 -66 -778 -124 -102 -28 -313 -99 -325
-110 -4 -4 47 -127 57 -138 4 -4 45 7 92 24 186 69 370 114 599 148 119 17
207 26 488 47 l72 6 0 79 0 79 -42 -1 c-24 -1 -97 -6 -163 -10z"/>
<path d="M3865 2215 c-24 -23 -25 -30 -25 -138 l0 -114 -67 -26 -68 -27 -80
80 c-116 115 -113 116 -282 -53 -169 -169 -168 -166 -53 -282 l80 -80 -27 -68
-26 -67 -114 0 c-108 0 -115 -1 -138 -25 -25 -24 -25 -26 -25 -215 0 -189 0
-191 25 -215 23 -24 30 -25 138 -25 l114 0 26 -67 27 -68 -80 -80 c-115 -116
-116 -113 53 -282 169 -169 166 -168 282 -53 l80 80 68 -27 67 -26 0 -114 c0
-108 1 -115 25 -138 24 -25 26 -25 215 -25 189 0 191 0 215 25 24 23 25 30 25
138 l0 114 67 26 68 27 80 -80 c116 -115 113 -116 282 53 169 169 168 166 53
282 l-80 80 27 68 26 67 114 0 c108 0 115 1 138 25 25 24 25 26 25 215 0 189
0 191 -25 215 -23 24 -30 25 -138 25 l-114 0 -26 67 -27 68 80 80 c115 116
116 113 -53 282 -169 169 -166 168 -282 53 l-80 -80 -68 27 -67 26 0 114 c0
108 -1 115 -25 138 -24 25 -26 25 -215 25 -189 0 -191 0 -215 -25z m295 -238
c0 -124 7 -135 107 -167 37 -12 92 -35 120 -51 79 -44 94 -40 182 46 l77 74
57 -56 56 -57 -74 -77 c-86 -88 -90 -103 -46 -182 16 -28 39 -83 51 -120 32
-100 43 -107 167 -107 l103 0 0 -80 0 -80 -103 0 c-124 0 -135 -7 -167 -107
-12 -37 -35 -92 -51 -120 -44 -79 -40 -94 46 -182 l74 -77 -56 -57 -57 -56
-77 74 c-88 86 -103 90 -182 46 -28 -16 -83 -39 -120 -51 -100 -32 -107 -43
-107 -167 l0 -103 -80 0 -80 0 0 103 c0 124 -7 135 -107 167 -37 12 -92 35
-120 51 -79 44 -94 40 -182 -46 l-77 -74 -57 56 -56 57 74 77 c86 88 90 103
46 182 -16 28 -39 83 -51 120 -32 100 -43 107 -167 107 l-103 0 0 80 0 80 103
0 c124 0 135 7 167 107 12 37 35 92 51 120 44 79 40 94 -46 182 l-74 77 56 57
57 56 77 -74 c88 -86 103 -90 182 -46 28 16 83 39 120 51 100 32 107 43 107
167 l0 103 80 0 80 0 0 -103z"/>
<path d="M3961 1664 c-253 -68 -410 -331 -346 -579 62 -237 291 -393 529 -358
213 30 379 195 409 407 48 333 -269 617 -592 530z m250 -173 c69 -33 112 -74
150 -143 31 -57 34 -70 34 -148 0 -79 -3 -90 -36 -150 -154 -280 -571 -191
-597 127 -11 144 76 275 218 327 60 22 170 15 231 -13z"/>
</g>
</svg>
